<?xml version="1.0" standalone="no"?>
<!DOCTYPE svg PUBLIC "-//W3C//DTD SVG 20010904//EN"
 "http://www.w3.org/TR/2001/REC-SVG-20010904/DTD/svg10.dtd">
<svg version="1.0" xmlns="http://www.w3.org/2000/svg"
 width="537.000000pt" height="537.000000pt" viewBox="0 0 537.000000 537.000000"
 preserveAspectRatio="xMidYMid meet">
<metadata>
Created by potrace 1.14, written by Peter Selinger 2001-2017
</metadata>
<g transform="translate(0.000000,537.000000) scale(0.100000,-0.100000)"
fill="#000000" stroke="none">
<path d="M2057 5349 c3 -10 11 -24 19 -30 8 -6 14 -15 14 -20 0 -4 36 -69 80
-145 44 -75 80 -137 80 -139 0 -2 38 -67 84 -146 46 -79 84 -145 83 -146 -2
-2 -64 -10 -142 -19 -33 -3 -69 -8 -80 -10 -11 -2 -40 -7 -65 -10 -25 -3 -72
-12 -105 -19 -33 -8 -72 -16 -86 -19 -189 -33 -565 -168 -793 -286 l-59 -30
473 0 c260 0 471 -2 469 -4 -2 -2 -66 -7 -142 -11 -76 -3 -148 -8 -160 -10
-12 -2 -57 -6 -99 -10 -43 -3 -92 -8 -110 -10 -18 -3 -55 -7 -83 -10 -27 -4
-61 -8 -75 -10 -14 -2 -63 -9 -110 -15 -125 -17 -194 -28 -220 -35 -8 -2 -35
-7 -60 -10 -24 -4 -47 -8 -50 -10 -3 -2 -25 -6 -49 -10 -32 -5 -69 -24 -130
-67 -83 -58 -205 -153 -245 -190 -19 -17 5 -18 589 -18 334 0 606 -2 604 -4
-2 -2 -71 -7 -154 -11 -82 -4 -152 -8 -155 -10 -3 -1 -49 -6 -102 -9 -53 -4
-105 -8 -115 -10 -10 -2 -49 -7 -88 -11 -68 -6 -96 -10 -180 -21 -105 -15
-152 -22 -265 -40 -52 -8 -111 -17 -130 -20 -19 -3 -51 -9 -70 -14 -19 -5 -51
-11 -70 -14 -88 -14 -74 -3 -213 -158 -118 -130 -149 -115 246 -116 439 0 412
1 400 -14 -21 -27 -93 -199 -142 -341 -50 -145 -124 -427 -136 -517 -3 -25 -8
-52 -10 -60 -2 -8 -6 -37 -10 -65 -3 -27 -8 -66 -10 -85 -2 -19 -7 -80 -10
-135 -4 -55 -9 -107 -11 -115 -5 -13 -3 -13 9 0 13 13 82 132 365 625 97 170
106 177 31 25 -141 -288 -250 -543 -356 -840 -42 -119 -44 -129 -39 -202 10
-128 40 -346 50 -355 2 -2 39 58 83 134 405 705 503 871 503 861 0 -4 -31 -69
-69 -146 -75 -149 -134 -279 -200 -437 -23 -55 -48 -113 -55 -130 -72 -164
-205 -543 -200 -569 8 -43 97 -306 103 -306 4 0 16 17 27 38 12 20 94 164 184
319 l163 281 40 -56 c165 -236 433 -514 677 -703 92 -71 232 -169 267 -187 14
-8 -22 63 -119 231 -77 133 -174 301 -215 372 -41 72 -84 146 -96 165 -39 66
-8 25 88 -120 141 -210 464 -637 550 -726 5 -6 24 -27 42 -47 35 -40 61 -55
218 -122 120 -51 215 -87 215 -79 0 2 -59 107 -131 232 -73 125 -175 301 -227
392 -52 91 -116 201 -142 245 -59 101 -72 125 -66 125 2 0 49 -66 103 -147
163 -246 408 -566 658 -861 57 -67 66 -73 142 -92 93 -23 254 -53 258 -48 1 2
-29 57 -68 123 -90 155 -105 181 -135 234 -14 25 -55 97 -92 160 -38 64 -65
119 -62 122 4 4 38 10 75 13 295 27 664 120 947 239 115 48 278 125 283 134 3
5 -177 8 -399 8 -222 0 -404 3 -404 7 0 5 21 8 48 9 26 0 58 2 72 4 14 1 66 6
115 10 50 4 97 8 105 10 8 2 49 6 90 10 41 4 77 8 80 10 3 1 37 6 75 10 39 3
88 10 110 15 22 5 65 11 95 15 49 6 100 15 167 29 11 2 42 8 68 11 30 5 69 23
111 51 80 53 258 189 274 209 15 18 88 16 -649 16 -316 0 -572 1 -570 3 2 2
54 7 114 11 215 13 241 14 300 20 33 3 83 8 110 11 65 6 143 14 175 19 14 2
48 6 75 10 47 5 94 12 140 19 11 2 45 7 75 11 30 4 64 9 75 11 11 2 61 11 110
19 269 45 258 42 317 104 29 31 82 89 117 129 l63 72 -38 1 c-22 0 -189 0
-371 0 -198 0 -333 3 -333 9 0 5 16 44 36 87 82 180 201 552 219 688 3 17 10
54 16 84 12 59 13 67 23 156 4 33 9 71 11 85 3 14 7 67 11 119 3 52 7 98 10
103 3 4 1 8 -3 8 -5 0 -13 -8 -19 -17 -11 -19 -153 -263 -184 -317 -119 -211
-224 -386 -228 -382 -3 3 0 11 5 18 16 20 176 370 228 498 26 63 51 124 55
135 24 56 53 132 95 249 50 139 48 117 29 306 -10 94 -22 184 -32 229 -7 34
-8 33 -81 -95 -41 -71 -94 -162 -118 -201 -23 -40 -43 -75 -43 -78 0 -3 -16
-31 -35 -61 -19 -30 -35 -57 -35 -59 0 -3 -11 -22 -23 -43 -13 -20 -59 -98
-102 -172 -81 -141 -91 -158 -144 -252 -18 -32 -35 -58 -37 -58 -2 0 25 57 60
128 179 358 338 734 461 1091 l32 93 -27 92 c-28 94 -50 159 -70 211 l-11 29
-26 -44 c-14 -25 -33 -58 -43 -75 -15 -26 -80 -139 -143 -248 -11 -18 -51 -87
-89 -155 -39 -68 -74 -119 -79 -115 -4 4 -40 53 -81 108 -220 298 -527 586
-848 796 -30 20 -56 35 -58 34 -4 -4 41 -86 135 -243 40 -68 73 -125 73 -127
0 -3 145 -255 223 -385 37 -63 1 -17 -74 95 -160 239 -366 512 -548 725 -74
87 -104 107 -231 163 -36 16 -81 35 -100 44 -53 24 -143 54 -147 49 -2 -2 22
-48 53 -102 31 -55 65 -112 74 -129 10 -16 75 -129 145 -250 70 -121 139 -240
153 -265 57 -102 165 -286 174 -297 6 -7 8 -13 5 -13 -4 0 -41 53 -83 118
-170 262 -560 779 -710 942 -18 19 -42 47 -53 61 -16 20 -38 30 -103 44 -46
10 -87 20 -93 21 -5 2 -44 9 -86 17 -72 13 -76 13 -72 -4z m1087 -1880 c1 -2
16 -29 33 -59 17 -30 63 -111 103 -180 40 -69 81 -138 90 -155 9 -16 61 -105
114 -197 53 -92 99 -174 102 -182 5 -13 -33 -82 -279 -506 -50 -85 -107 -184
-127 -220 l-38 -65 -453 0 -453 0 -84 145 c-47 80 -98 170 -115 200 -17 30
-45 79 -64 108 -18 29 -33 54 -33 57 0 2 -35 64 -78 138 l-79 134 92 159 c51
87 127 220 170 294 43 74 85 146 92 160 8 14 28 48 44 75 16 28 35 60 41 72 6
12 18 23 26 25 23 4 892 1 896 -3z m1329 -974 c-3 -9 -8 -14 -10 -11 -3 3 -2
9 2 15 9 16 15 13 8 -4z m-23 -45 c-6 -11 -13 -20 -16 -20 -2 0 0 9 6 20 6 11
13 20 16 20 2 0 0 -9 -6 -20z m-3320 -30 c-6 -11 -13 -20 -16 -20 -2 0 0 9 6
20 6 11 13 20 16 20 2 0 0 -9 -6 -20z m1020 -1231 c15 -28 5 -23 -15 7 -9 15
-12 23 -6 20 6 -4 16 -16 21 -27z"/>
</g>
</svg>
