<?xml version="1.0" encoding="utf-8"?>
<!DOCTYPE svg PUBLIC "-//W3C//DTD SVG 20010904//EN" "http://www.w3.org/TR/2001/REC-SVG-20010904/DTD/svg10.dtd">
<svg version="1.0" xmlns="http://www.w3.org/2000/svg" width="256pt" height="256pt" viewBox="0 0 256 256" style="" preserveAspectRatio="xMidYMid meet">
<g fill="#010101FF" stroke="#010101FF">
<path d="M 26.123 45.935 C 23.563 51.886 23.572 51.741 25.750 52.311 C 27.315 52.720 27.322 52.780 25.817 52.884 C 23.636 53.034 22.643 56.282 23.455 60.610 C 24.311 65.177 31.750 75.675 37.159 79.951 C 39.547 81.838 42.400 84.225 43.500 85.256 C 47.134 88.659 60.359 97.775 69.250 103.004 C 74.063 105.834 78.000 108.484 78.000 108.891 C 78.000 109.299 80.738 110.941 84.085 112.541 C 87.432 114.140 90.694 116.360 91.335 117.474 C 92.069 118.750 92.692 127.272 93.018 140.500 C 93.604 164.260 94.224 166.510 102.396 174.527 C 112.039 183.988 116.864 186.132 128.779 186.251 C 140.623 186.370 145.545 184.273 154.998 175.079 C 163.421 166.886 164.288 163.764 164.937 139.283 C 165.572 115.345 164.971 117.062 174.500 111.973 C 177.800 110.210 180.725 108.467 181.000 108.098 C 181.275 107.729 185.100 105.213 189.500 102.507 C 193.900 99.800 198.055 97.043 198.734 96.380 C 199.413 95.717 203.125 93.076 206.984 90.511 C 210.843 87.945 214.000 85.507 214.000 85.093 C 214.000 84.678 215.987 82.912 218.416 81.167 C 220.845 79.423 224.543 75.634 226.633 72.748 C 228.724 69.862 230.784 67.250 231.211 66.945 C 232.483 66.036 233.736 57.518 232.921 55.317 C 232.507 54.195 231.450 53.003 230.573 52.666 C 229.696 52.330 229.281 52.083 229.650 52.117 C 230.018 52.151 230.747 51.416 231.269 50.483 C 232.556 48.183 229.142 41.027 226.750 41.011 C 225.788 41.005 225.000 41.587 225.000 42.304 C 225.000 43.021 223.435 45.124 221.522 46.978 C 218.873 49.546 218.305 50.662 219.136 51.663 C 219.736 52.386 220.738 52.685 221.363 52.327 C 222.325 51.776 218.949 54.924 210.990 62.000 C 210.062 62.825 204.685 67.774 199.041 72.998 C 193.397 78.222 187.149 83.622 185.156 84.998 C 183.164 86.374 180.626 88.317 179.517 89.316 C 175.570 92.871 171.408 94.868 164.719 96.416 C 157.160 98.166 152.637 100.981 151.101 104.892 C 150.538 106.326 149.947 117.637 149.788 130.026 L 149.500 152.552 145.500 158.918 C 140.724 166.518 136.744 169.000 129.331 169.000 C 120.435 169.000 115.313 165.916 111.890 158.500 C 110.266 154.982 110.041 151.718 110.022 131.400 L 110.000 108.300 107.020 104.186 C 103.295 99.044 100.708 97.385 95.000 96.475 C 89.422 95.586 82.106 91.964 77.214 87.669 C 75.171 85.876 72.154 83.560 70.509 82.523 C 68.863 81.486 62.893 76.557 57.241 71.569 C 51.588 66.581 44.318 60.181 41.085 57.347 C 36.841 53.627 35.510 51.890 36.297 51.103 C 37.084 50.316 36.638 49.231 34.693 47.202 C 33.212 45.656 32.000 43.628 32.000 42.695 C 32.000 41.704 31.221 41.000 30.123 41.000 C 28.828 41.000 27.589 42.529 26.123 45.935 "/></g>
<g fill="#010101FF" stroke="#010101FF">
<path d="M 121.952 99.253 C 115.447 103.637 115.048 105.274 114.568 129.592 C 114.084 154.133 114.693 158.273 119.129 160.566 C 125.324 163.770 137.091 161.439 138.592 156.711 C 138.916 155.691 139.779 155.085 140.510 155.365 C 141.347 155.686 142.608 154.237 143.919 151.449 C 145.790 147.468 146.000 145.174 146.000 128.699 C 146.000 112.302 145.786 109.932 143.960 106.153 C 142.838 103.831 141.375 102.055 140.710 102.208 C 140.044 102.360 137.883 101.251 135.906 99.743 C 131.429 96.327 126.548 96.156 121.952 99.253 M 133.443 109.223 C 135.637 112.354 135.666 133.812 133.482 138.035 C 131.553 141.764 127.632 142.882 124.960 140.464 C 123.188 138.860 123.000 137.322 123.000 124.416 C 123.000 112.774 123.290 109.853 124.571 108.571 C 126.904 106.239 131.595 106.583 133.443 109.223 "/></g>
<g fill="#010101FF" stroke="#010101FF">
<path d="M 4.158 62.866 C -1.321 81.154 11.403 96.360 47.196 114.304 C 53.079 117.253 58.479 120.127 59.196 120.690 C 59.913 121.253 66.575 123.902 74.000 126.576 C 81.425 129.250 87.803 131.873 88.174 132.405 C 89.071 133.693 92.000 131.234 92.000 129.193 C 92.000 128.334 91.055 125.680 89.900 123.294 C 88.193 119.768 86.682 118.402 81.821 115.990 C 78.532 114.358 74.639 112.175 73.170 111.138 C 71.702 110.101 67.738 107.865 64.362 106.169 C 58.883 103.416 50.857 98.157 26.711 81.500 C 21.563 77.949 19.564 75.984 19.810 74.720 C 20.026 73.618 18.218 71.012 15.061 67.870 C 12.257 65.081 9.506 61.945 8.946 60.900 C 7.334 57.887 5.414 58.676 4.158 62.866 "/></g>
<g fill="#010101FF" stroke="#010101FF">
<path d="M 248.000 60.074 C 248.000 60.665 245.485 63.785 242.411 67.008 C 238.514 71.094 236.987 73.416 237.366 74.683 C 237.784 76.080 236.128 77.731 230.205 81.824 C 225.967 84.752 217.186 90.900 210.692 95.486 C 204.198 100.073 195.945 105.287 192.353 107.073 C 188.761 108.859 185.273 110.870 184.602 111.541 C 183.931 112.212 180.918 113.926 177.906 115.351 C 170.702 118.759 166.979 122.735 166.308 127.739 C 165.884 130.905 166.129 131.836 167.533 132.374 C 168.508 132.749 170.003 132.444 170.895 131.690 C 171.778 130.943 177.450 128.634 183.500 126.558 C 195.389 122.479 199.396 120.449 198.480 118.968 C 198.159 118.448 198.545 118.272 199.338 118.576 C 200.130 118.880 205.216 116.830 210.639 114.019 C 227.554 105.254 240.744 96.012 239.413 93.858 C 239.128 93.399 239.498 93.254 240.233 93.536 C 242.180 94.283 247.486 88.672 250.441 82.743 C 252.484 78.643 253.000 76.135 253.000 70.304 C 253.000 66.101 252.575 63.000 252.000 63.000 C 251.450 63.000 251.000 62.100 251.000 61.000 C 251.000 59.889 250.333 59.000 249.500 59.000 C 248.675 59.000 248.000 59.483 248.000 60.074 "/></g>
<g fill="#010101FF" stroke="#010101FF">
<path d="M 6.000 102.194 C 6.000 102.429 7.095 105.415 8.433 108.829 C 10.681 114.564 13.068 117.965 18.660 123.401 C 22.862 127.485 38.626 134.449 53.500 138.792 C 61.750 141.201 70.750 143.850 73.500 144.679 C 80.940 146.922 86.823 148.005 88.362 147.414 C 90.537 146.580 92.063 142.295 91.092 139.754 C 89.941 136.745 87.041 134.240 83.991 133.621 C 75.720 131.941 59.230 126.255 53.171 122.992 C 51.152 121.905 45.000 119.164 39.500 116.902 C 34.000 114.640 28.774 112.147 27.886 111.363 C 25.481 109.237 6.000 101.076 6.000 102.194 "/></g>
<g fill="#010101FF" stroke="#010101FF">
<path d="M 235.000 108.612 C 228.125 112.164 218.523 116.667 213.662 118.620 C 208.801 120.573 203.401 122.990 201.662 123.990 C 199.923 124.991 193.325 127.455 187.000 129.467 C 172.645 134.032 168.939 135.823 167.127 139.069 C 165.328 142.291 166.299 146.643 169.008 147.503 C 170.736 148.051 179.344 146.206 184.000 144.290 C 184.825 143.951 185.725 143.595 186.000 143.500 C 186.275 143.405 187.175 143.046 188.000 142.702 C 188.825 142.358 195.403 140.542 202.619 138.666 C 228.188 132.018 242.271 122.840 248.144 109.000 C 251.788 100.410 250.929 100.384 235.000 108.612 "/></g>
<g fill="#010101FF" stroke="#010101FF">
<path d="M 23.419 138.131 C 22.841 139.067 25.088 144.000 26.093 144.000 C 26.518 144.000 27.133 144.844 27.460 145.875 C 28.355 148.694 34.620 154.766 38.874 156.936 C 42.003 158.532 54.313 160.816 60.000 160.855 C 60.825 160.861 67.633 161.188 75.129 161.582 L 88.759 162.298 90.545 159.571 C 91.893 157.514 92.107 156.208 91.416 154.247 C 90.674 152.144 89.454 151.406 85.000 150.367 C 81.975 149.662 78.008 149.066 76.184 149.042 C 74.361 149.019 72.073 148.574 71.100 148.054 C 70.128 147.533 65.095 146.414 59.916 145.566 C 54.737 144.719 44.507 142.537 37.182 140.718 C 29.857 138.899 23.664 137.735 23.419 138.131 "/></g>
<g fill="#010101FF" stroke="#010101FF">
<path d="M 230.000 137.897 C 229.175 138.356 219.050 140.670 207.500 143.038 C 195.950 145.406 186.050 147.829 185.500 148.422 C 184.950 149.015 181.800 149.529 178.500 149.563 C 175.200 149.598 171.150 150.277 169.500 151.071 C 165.629 152.934 164.984 156.984 168.068 160.068 C 170.167 162.167 170.769 162.229 182.878 161.581 C 214.398 159.894 222.533 156.969 230.920 144.307 C 235.137 137.941 234.750 135.250 230.000 137.897 "/></g>
<g fill="#010101FF" stroke="#010101FF">
<path d="M 46.247 164.793 C 45.975 165.504 45.921 166.219 46.126 166.381 C 55.916 174.107 62.981 176.402 77.148 176.455 C 87.656 176.495 89.141 176.283 90.862 174.500 C 93.605 171.656 94.237 168.707 92.587 166.448 C 91.271 164.647 89.491 164.462 68.953 164.000 C 51.349 163.604 46.639 163.768 46.247 164.793 "/></g>
<g fill="#010101FF" stroke="#010101FF">
<path d="M 208.751 163.582 C 208.431 163.902 199.615 164.110 189.159 164.044 C 178.704 163.978 169.007 164.211 167.611 164.562 C 162.240 165.910 163.621 173.105 169.744 175.672 C 174.153 177.521 186.385 176.966 194.532 174.546 C 197.264 173.735 199.842 173.064 200.260 173.056 C 202.887 173.003 210.228 167.463 211.267 164.750 C 211.911 163.068 210.104 162.229 208.751 163.582 "/></g>
<g fill="#010101FF" stroke="#010101FF">
<path d="M 126.569 131.573 C 124.848 133.295 124.698 134.050 125.607 136.418 C 126.839 139.629 132.000 137.543 132.000 133.835 C 132.000 131.110 128.493 129.650 126.569 131.573 "/></g>
<g fill="#010101FF" stroke="#010101FF">
<path d="M 125.463 122.116 C 124.520 125.088 127.404 127.389 130.199 125.894 C 133.080 124.352 132.178 120.578 128.836 120.192 C 126.810 119.958 126.002 120.418 125.463 122.116 "/></g>
<g fill="#010101FF" stroke="#010101FF">
<path d="M 126.573 112.569 C 124.417 114.726 126.260 118.246 129.318 117.811 C 133.012 117.285 132.561 111.100 128.821 111.015 C 128.448 111.007 127.437 111.706 126.573 112.569 "/></g>
</svg>
